# xmcd
#
# Track frame offsets:
#	150
#	28854
#	45899
#	72206
#	85828
#	104319
#	131133
#	166968
#
# Disc length: 2552 seconds
#
# Revision: 1
# Processed by: cddbd v1.5.2PL0 Copyright (c) Steve Scherf et al.
# Submitted via: audiograbber 1.83.01
#
DISCID=6109f608
DTITLE=Stars and Bars - Here`s looking at you
DYEAR=2007
DGENRE=Rhythm`n`Blues
TTITLE0=Stars and Bars - Shotgun Blues
TTITLE1=Stars and Bars - Hittin` On Me
TTITLE2=Stars and Bars - Itchy Feet
TTITLE3=Stars and Bars - Last Son
TTITLE4=Stars and Bars - Alabama Blues
TTITLE5=Stars and Bars - Who`s Been Talkin`
TTITLE6=Stars and Bars - Mississippi
TTITLE7=Stars and Bars - Tobacco Road
EXTD=
EXTT0=
EXTT1=
EXTT2=
EXTT3=
EXTT4=
EXTT5=
EXTT6=
EXTT7=
PLAYORDER=
